<svg width="1803" height="2480" viewBox="0 0 1803 2480" fill="none" xmlns="http://www.w3.org/2000/svg">
<path d="M0 247C0 230.431 13.4315 217 30 217H571C587.569 217 601 230.431 601 247V2480H0V247Z" fill="#0090E7"/>
<path d="M0 247C0 230.431 13.4315 217 30 217H571C587.569 217 601 230.431 601 247V726.5C601 892.462 466.462 1027 300.5 1027H0V247Z" fill="#F54240"/>
<path d="M601 745C601 728.431 614.431 715 631 715H1172C1188.57 715 1202 728.431 1202 745V2480H601V745Z" fill="#FFAB00"/>
<path d="M1202 30C1202 13.4314 1215.43 0 1232 0H1773C1789.57 0 1803 13.4315 1803 30V2480H1202V30Z" fill="#8F5FE8"/>
<path d="M1202 1746H1502.5C1668.46 1746 1803 1880.54 1803 2046.5V2480H1202V1746Z" fill="#00D25B"/>
</svg>
