<svg width="6629" height="1680" viewBox="0 0 6629 1680" fill="none" xmlns="http://www.w3.org/2000/svg">
<path d="M0 207C0 195.954 8.95431 187 20 187H265C276.046 187 285 195.954 285 207V1260H0V207Z" fill="#0090E7"/>
<path d="M0 207C0 195.954 8.95431 187 20 187H265C276.046 187 285 195.954 285 207V428.5C285 507.201 221.201 571 142.5 571H0V207Z" fill="#F54240"/>
<path d="M285 443C285 431.954 293.954 423 305 423H550C561.046 423 570 431.954 570 443V1260H285V443Z" fill="#FFAB00"/>
<path d="M570 104C570 92.9543 578.954 84 590 84H835C846.046 84 855 92.9543 855 104V1260H570V104Z" fill="#8F5FE8"/>
<path d="M570 912H712.5C791.201 912 855 975.799 855 1054.5V1260H570V912Z" fill="#00D25B"/>
<path d="M1706.2 1054.8C1706.2 1118.8 1686.2 1167.2 1646.2 1200C1607 1232.8 1537.4 1249.2 1437.4 1249.2H1063V489.6H1109.8H1425.4C1491.8 489.6 1543.4 496.8 1580.2 511.2C1617.8 524.8 1644.2 545.2 1659.4 572.4C1674.6 599.6 1682.2 633.6 1682.2 674.4C1682.2 730.4 1668.6 774 1641.4 805.2C1615 835.6 1565 854 1491.4 860.4V864C1545.8 868 1588.6 877.2 1619.8 891.6C1651 905.2 1673 925.2 1685.8 951.6C1699.4 978 1706.2 1012.4 1706.2 1054.8ZM1372.6 640.8H1255V789.6H1372.6C1411.8 789.6 1440.2 784.8 1457.8 775.2C1475.4 764.8 1484.2 744.8 1484.2 715.2C1484.2 686.4 1475.4 666.8 1457.8 656.4C1440.2 646 1411.8 640.8 1372.6 640.8ZM1396.6 946.8H1255V1099.2H1396.6C1435.8 1099.2 1464.2 1094 1481.8 1083.6C1499.4 1072.4 1508.2 1052 1508.2 1022.4C1508.2 992 1499.4 972 1481.8 962.4C1464.2 952 1435.8 946.8 1396.6 946.8ZM1995.37 447.6C1997.77 476.4 1998.97 500.4 1998.97 519.6C1998.97 530.8 1998.57 542.4 1997.77 554.4C1997.77 565.6 1996.97 578.4 1995.37 592.8C1978.57 596 1962.17 598.4 1946.17 600C1930.17 601.6 1914.17 602.4 1898.17 602.4C1882.97 602.4 1867.37 601.6 1851.37 600C1836.17 598.4 1820.57 596 1804.57 592.8C1802.97 579.2 1801.77 566.8 1800.97 555.6C1800.17 543.6 1799.77 532 1799.77 520.8C1799.77 510.4 1800.17 499.2 1800.97 487.2C1801.77 475.2 1802.97 462 1804.57 447.6C1820.57 443.6 1836.57 441.2 1852.57 440.4C1869.37 438.8 1885.77 438 1901.77 438C1916.97 438 1932.17 438.8 1947.37 440.4C1963.37 441.2 1979.37 443.6 1995.37 447.6ZM1995.37 1249.2H1803.37V664.8H1995.37V1249.2ZM2721.03 931.2C2721.03 1039.2 2699.03 1121.2 2655.03 1177.2C2611.03 1232.4 2536.23 1260 2430.63 1260C2371.43 1260 2316.23 1258 2265.03 1254C2214.63 1249.2 2170.23 1243.6 2131.83 1237.2L2128.23 1234.8V441.6H2320.23V754.8H2325.03C2336.23 726 2354.63 702.8 2380.23 685.2C2406.63 667.6 2443.83 658.8 2491.83 658.8C2644.63 658.8 2721.03 749.6 2721.03 931.2ZM2320.23 951.6V1092C2339.43 1095.2 2361.83 1096.8 2387.43 1096.8C2425.03 1096.8 2454.23 1093.6 2475.03 1087.2C2496.63 1080 2511.83 1066.4 2520.63 1046.4C2529.43 1026.4 2533.83 997.6 2533.83 960C2533.83 912.8 2527.03 878 2513.43 855.6C2499.83 833.2 2471.83 822 2429.43 822C2397.43 822 2371.03 832 2350.23 852C2330.23 871.2 2320.23 904.4 2320.23 951.6ZM3015.16 1249.2H2823.16V441.6H3015.16V1249.2ZM3340.68 447.6C3343.08 476.4 3344.28 500.4 3344.28 519.6C3344.28 530.8 3343.88 542.4 3343.08 554.4C3343.08 565.6 3342.28 578.4 3340.68 592.8C3323.88 596 3307.48 598.4 3291.48 600C3275.48 601.6 3259.48 602.4 3243.48 602.4C3228.28 602.4 3212.68 601.6 3196.68 600C3181.48 598.4 3165.88 596 3149.88 592.8C3148.28 579.2 3147.08 566.8 3146.28 555.6C3145.48 543.6 3145.08 532 3145.08 520.8C3145.08 510.4 3145.48 499.2 3146.28 487.2C3147.08 475.2 3148.28 462 3149.88 447.6C3165.88 443.6 3181.88 441.2 3197.88 440.4C3214.68 438.8 3231.08 438 3247.08 438C3262.28 438 3277.48 438.8 3292.68 440.4C3308.68 441.2 3324.68 443.6 3340.68 447.6ZM3340.68 1249.2H3148.68V664.8H3340.68V1249.2ZM3431.55 961.2C3431.55 854 3454.35 776.8 3499.95 729.6C3545.55 682.4 3622.75 658.8 3731.55 658.8C3804.35 658.8 3862.75 669.2 3906.75 690C3950.75 710.8 3982.35 743.6 4001.55 788.4C4021.55 832.4 4031.55 890 4031.55 961.2C4031.55 1031.6 4021.55 1088.8 4001.55 1132.8C3982.35 1176.8 3950.75 1209.2 3906.75 1230C3862.75 1250 3804.35 1260 3731.55 1260C3622.75 1260 3545.55 1236.8 3499.95 1190.4C3454.35 1143.2 3431.55 1066.8 3431.55 961.2ZM3731.55 1095.6C3777.95 1095.6 3809.15 1085.6 3825.15 1065.6C3841.95 1044.8 3850.35 1008.8 3850.35 957.6C3850.35 908.8 3841.95 874 3825.15 853.2C3809.15 831.6 3777.95 820.8 3731.55 820.8C3686.75 820.8 3655.55 831.6 3637.95 853.2C3621.15 874 3612.75 908.8 3612.75 957.6C3612.75 1008.8 3621.15 1044.8 3637.95 1065.6C3655.55 1085.6 3686.75 1095.6 3731.55 1095.6ZM4289.31 1249.2V651.6H4073.31V489.6H4697.31V651.6H4481.31V1249.2H4289.31ZM5296.16 1230C5273.76 1238 5242.56 1245.2 5202.56 1251.6C5163.36 1257.2 5116.56 1260 5062.16 1260C4993.36 1260 4934.56 1251.2 4885.76 1233.6C4837.76 1215.2 4801.36 1184.4 4776.56 1141.2C4751.76 1097.2 4739.36 1036.4 4739.36 958.8C4739.36 853.2 4763.36 776.8 4811.36 729.6C4860.16 682.4 4935.36 658.8 5036.96 658.8C5109.76 658.8 5166.96 669.2 5208.56 690C5250.96 710.8 5280.96 740.4 5298.56 778.8C5316.96 816.4 5326.16 861.2 5326.16 913.2C5326.16 928.4 5325.36 944.8 5323.76 962.4C5322.96 980 5320.96 997.2 5317.76 1014L5312.96 1018.8H4918.16C4923.76 1054 4940.16 1077.2 4967.36 1088.4C4995.36 1099.6 5040.56 1105.2 5102.96 1105.2C5144.56 1105.2 5178.96 1104.4 5206.16 1102.8C5234.16 1100.4 5262.56 1097.2 5291.36 1093.2L5296.16 1096.8V1230ZM5159.36 892.8C5159.36 873.6 5156.16 857.2 5149.76 843.6C5144.16 829.2 5132.56 818.4 5114.96 811.2C5097.36 803.2 5071.36 799.2 5036.96 799.2C4986.56 799.2 4953.36 808 4937.36 825.6C4922.16 842.4 4914.56 864.8 4914.56 892.8H5159.36ZM5883.03 1080V1236C5863.03 1244 5833.43 1250 5794.23 1254C5755.03 1258 5713.43 1260 5669.43 1260C5606.23 1260 5553.43 1251.2 5511.03 1233.6C5469.43 1216 5438.23 1185.6 5417.43 1142.4C5397.43 1099.2 5387.03 1039.2 5386.23 962.4C5386.23 883.2 5397.03 821.6 5418.63 777.6C5441.03 733.6 5473.43 702.8 5515.83 685.2C5558.23 667.6 5609.03 658.8 5668.23 658.8C5703.43 658.8 5740.63 661.2 5779.83 666C5819.03 670.8 5851.03 677.2 5875.83 685.2L5877.03 846L5873.43 848.4C5849.43 843.6 5823.83 840 5796.63 837.6C5769.43 835.2 5742.63 834 5716.23 834C5662.63 834 5625.43 844 5604.63 864C5583.83 884 5573.43 917.6 5573.43 964.8C5573.43 1000.8 5577.83 1027.6 5586.63 1045.2C5595.43 1062.8 5610.23 1074.4 5631.03 1080C5651.83 1085.6 5680.23 1088.4 5716.23 1088.4C5744.23 1088.4 5771.03 1087.2 5796.63 1084.8C5822.23 1082.4 5849.43 1079.6 5878.23 1076.4L5883.03 1080ZM6182.73 1249.2H5990.73V442.8H6182.73V771.6H6186.33C6197.53 735.6 6217.93 708 6247.53 688.8C6277.93 668.8 6317.53 658.8 6366.33 658.8C6412.73 658.8 6450.73 666.4 6480.33 681.6C6510.73 696.8 6533.13 723.6 6547.53 762C6562.73 799.6 6570.33 852.8 6570.33 921.6V1249.2H6378.33L6377.13 958.8C6377.13 914 6370.33 882 6356.73 862.8C6343.13 843.6 6317.53 834 6279.93 834C6246.33 834 6221.93 842.8 6206.73 860.4C6191.53 878 6183.53 907.6 6182.73 949.2V1249.2Z" fill="white"/>
</svg>
